<svg xmlns="http://www.w3.org/2000/svg" viewBox="0 0 448.87 77">
    <defs>
        <clipPath id="a" transform="translate(-28.65 -32.36)">
            <path fill="none" d="M28.65 32.36h84.44v77H28.65z"/>
        </clipPath>
    </defs>
    <path
            d="M344.03 22.4h-7.05v21.7h-4.54V22.4h-7.09v-3.5h18.68Zm14.44 8.78V44.1h-3.5l-.35-1.84a7.88 7.88 0 0 1-5.69 2.3c-3.38 0-6.37-2.04-6.37-5.43v-1.26c0-3.34 2.95-5.54 7.96-5.54h3.52v-1.3c0-2.26-1.15-3.24-3.42-3.24a11.8 11.8 0 0 0-5.58 1.44l-1.36-2.77a14.1 14.1 0 0 1 7.34-2.01c5.11 0 7.45 2.66 7.45 6.73Zm-4.43 8.2v-4.24h-3.1c-2.62 0-3.95.97-3.95 2.91v.72c0 1.52.9 2.49 2.8 2.49a5.43 5.43 0 0 0 4.25-1.87Zm24.88-8.53V44.1h-4.46V31.21c0-2.4-1.15-3.38-2.99-3.38a4.99 4.99 0 0 0-4.14 2.41V44.1h-4.46V24.95h3.81l.3 1.98a6.96 6.96 0 0 1 5.68-2.48c3.56 0 6.26 2.26 6.26 6.4Zm20.26-13.39V44.1h-3.5l-.46-2.09a6.45 6.45 0 0 1-5.26 2.56c-4.46 0-7.6-3.57-7.6-9.04v-2.01c0-5.26 3.17-9.07 7.82-9.07a6.37 6.37 0 0 1 4.53 1.69v-8.68ZM394.7 39v-9.6a5.13 5.13 0 0 0-3.78-1.58c-2.55 0-4.1 1.94-4.1 5.58v2.2c0 3.81 1.51 5.61 3.92 5.61a4.7 4.7 0 0 0 3.96-2.23Zm24.72-3.07h-12.34c.07 3.67 1.76 5.3 5.07 5.3a9.99 9.99 0 0 0 5.12-1.6l1.58 2.67a12.04 12.04 0 0 1-6.98 2.27c-5.84 0-9.15-3.85-9.15-9.04v-1.98c0-5.18 3.24-9.1 8.57-9.1 5.22 0 8.28 3.24 8.28 9.32a18.07 18.07 0 0 1-.15 2.16Zm-3.85-3.1c0-3.3-1.47-5.1-4.24-5.1-2.74 0-4.18 1.8-4.25 5.28h8.5Zm33.3-1.98V44.1h-4.43V31.18c0-2.41-1.18-3.35-2.62-3.35-1.4 0-2.6.9-3.64 2.41V44.1h-4.46V31.18c0-2.41-1.15-3.35-2.6-3.35s-2.59.9-3.67 2.41V44.1h-4.42V24.95h3.81l.25 1.98a6.5 6.5 0 0 1 5.19-2.48 5.7 5.7 0 0 1 5.07 2.88 6.93 6.93 0 0 1 5.62-2.88c3.17 0 5.9 2.26 5.9 6.4Z"
            data-name="Product names"
            fill="#fff"
            transform="translate(0 -0.5)"
    />
    <g data-name="Autodesk logo">
        <path
                d="M313.96 18.9h-7.65l-9.17 10.24V18.9h-6.43l.03 25.2h6.4v-9.57l8.69 9.57h8.13l-11.72-12.44 11.72-12.76zm-33.61 10.37-5.86-.66c-3.43-.38-4.28-1.23-4.28-2.4 0-1.3 1.76-2.46 5.2-2.46 3.3 0 5.03 1.23 5.35 3.1h6.3c-.32-5.33-4.79-8.64-11.31-8.64-7.75 0-11.66 3.09-11.66 8.54 0 4.44 2.59 6.52 7.94 7.08l5.96.63c2.26.26 3.3 1.14 3.3 2.27 0 1.3-1.5 2.46-5.16 2.46-4.22 0-5.93-1.07-6.2-3.21h-6.18c.28 5.8 4.06 8.75 12.16 8.75 7.4 0 11.53-3.24 11.53-8.12 0-4.26-2.46-6.8-7.1-7.34ZM240.63 44.1h20.28v-5.45h-13.86v-4.56h11.15v-5.48h-11.15v-4.26h13.86V18.9h-20.28v25.2zM225.5 18.9h-11.78v25.2h11.78c9.04 0 11.53-3.37 11.53-12.79 0-8.85-2.4-12.4-11.53-12.4Zm-.25 19.75h-5.1v-14.3h5.1c4.03 0 5.23 1.1 5.23 6.96 0 5.36-1.35 7.34-5.23 7.34ZM196.27 18.2c-9.17 0-13.92 5.65-13.92 13.24 0 7.62 4.75 13.3 13.92 13.3 9.2 0 13.96-5.68 13.96-13.3 0-7.6-4.76-13.23-13.96-13.23Zm0 20.86c-4.76 0-7.37-2.9-7.37-7.62 0-4.63 2.61-7.56 7.37-7.56 4.79 0 7.37 2.93 7.37 7.56 0 4.73-2.58 7.62-7.37 7.62Zm-37.61-14.71h8.12V44.1h6.43V24.35h8.1V18.9h-22.65v5.45zm-9.36 10.11c0 3.28-2.02 4.6-5.45 4.6-3.34 0-5.51-1.38-5.51-4.6V18.9h-6.43v16.3c0 7.28 6.49 9.54 11.94 9.54 5.42 0 11.88-2.26 11.88-9.54V18.9h-6.43ZM113.1 18.9l-9.67 25.2h6.65l1.69-4.72h10.8l1.65 4.72h6.87l-9.8-25.2Zm.58 15.12 3.53-9.88 3.47 9.88Z"
                data-name="wordmark"
                fill="#fff"
                transform="translate(0 -0.5)"
        />
    </g>
    <g clip-path="url(#a)" data-name="icon">
        <g clip-path="url(#a)">
            <path d="m13.63.04.02-.04 64.13 14.18h6.66V77H12a4.55 4.55 0 0 1-4.55-4.55V66.3Z" fill="#78082a"/>
            <path d="M78.23 63h-64.6V.04l.02-.04h60.03a4.55 4.55 0 0 1 4.55 4.55Z" fill="#e51050"/>
            <path fill="#e85984" d="M0 71.23 13.65 63V0L0 8.23v63z"/>
        </g>
        <g clip-path="url(#a)">
            <path d="M59.46 20.38h-9.13v28.63H41.6V20.38h-9.23V14.1h27.09Z" fill="#fff"/>
        </g>
    </g>
</svg>